<svg version="1.1" xmlns="http://www.w3.org/2000/svg" xmlns:xlink="http://www.w3.org/1999/xlink" width="1524" height="881"><defs><clipPath id="vVEHnwuOmfMf"><path fill="none" stroke="none" d=" M 0 0 L 1524 0 L 1524 881 L 0 881 L 0 0 Z"/></clipPath></defs><g transform="scale(1,1)" clip-path="url(#vVEHnwuOmfMf)"><g><rect fill="rgb(255,255,255)" stroke="none" x="0" y="0" width="1524" height="881" fill-opacity="1"/><path fill="rgb(21,101,192)" stroke="none" paint-order="stroke fill markers" fill-rule="evenodd" d=" M 532.154524136924 181.42548037280068 L 154.1176650106113 772.8908842162357 L 1182.332273309344 756.2203021049397 L 1248.2923348195895 363.15218045204836 Z" fill-opacity="0.09803921568627451"/><path fill="rgb(21,101,192)" stroke="none" paint-order="stroke fill markers" d=" M 848.129488522365 460.7656662787702 C 834.5595219708439 476.11530057475323 830.5687923296175 497.70097601706703 837.7537165779219 516.8877456455363 L 889.635531725311 497.4594146176067 Z" fill-opacity="0.09803921568627451"/><path fill="none" stroke="rgb(21,101,192)" paint-order="fill stroke markers" d=" M 848.129488522365 460.7656662787702 C 834.5595219708439 476.11530057475323 830.5687923296175 497.70097601706703 837.7537165779219 516.8877456455363 L 889.635531725311 497.4594146176067 Z" stroke-opacity="0.8" stroke-linecap="round" stroke-linejoin="round" stroke-miterlimit="10" stroke-width="2.5"/><path fill="none" stroke="rgb(21,101,192)" paint-order="fill stroke markers" d=" M 532.154524136924 181.42548037280068 L 154.1176650106113 772.8908842162357" stroke-opacity="0.6980392156862745" stroke-linecap="round" stroke-linejoin="round" stroke-miterlimit="10" stroke-width="2.5"/><path fill="none" stroke="rgb(21,101,192)" paint-order="fill stroke markers" d=" M 154.1176650106113 772.8908842162357 L 1182.332273309344 756.2203021049397" stroke-opacity="0.6980392156862745" stroke-linecap="round" stroke-linejoin="round" stroke-miterlimit="10" stroke-width="2.5"/><path fill="none" stroke="rgb(21,101,192)" paint-order="fill stroke markers" d=" M 1182.332273309344 756.2203021049397 L 1248.2923348195895 363.15218045204836" stroke-opacity="0.6980392156862745" stroke-linecap="round" stroke-linejoin="round" stroke-miterlimit="10" stroke-width="2.5"/><path fill="none" stroke="rgb(21,101,192)" paint-order="fill stroke markers" d=" M 1248.2923348195895 363.15218045204836 L 532.154524136924 181.42548037280068" stroke-opacity="0.6980392156862745" stroke-linecap="round" stroke-linejoin="round" stroke-miterlimit="10" stroke-width="2.5"/><path fill="none" stroke="rgb(0,0,0)" paint-order="fill stroke markers" d=" M 532.154524136924 181.42548037280068 L 1182.332273309344 756.2203021049397" stroke-opacity="0.6980392156862745" stroke-linecap="round" stroke-linejoin="round" stroke-miterlimit="10" stroke-width="2.5"/><path fill="none" stroke="rgb(0,0,0)" paint-order="fill stroke markers" d=" M 154.1176650106113 772.8908842162357 L 1248.2923348195895 363.15218045204836" stroke-opacity="0.6980392156862745" stroke-linecap="round" stroke-linejoin="round" stroke-miterlimit="10" stroke-width="2.5"/><path fill="rgb(21,101,192)" stroke="none" paint-order="stroke fill markers" d=" M 537.154524136924 181.42548037280068 C 537.154524136924 184.18690412195465 534.915947886078 186.42548037280068 532.154524136924 186.42548037280068 C 529.39310038777 186.42548037280068 527.154524136924 184.18690412195465 527.154524136924 181.42548037280068 C 527.154524136924 178.6640566236467 529.39310038777 176.42548037280068 532.154524136924 176.42548037280068 C 534.915947886078 176.42548037280068 537.154524136924 178.6640566236467 537.154524136924 181.42548037280068 Z" fill-opacity="1"/><path fill="none" stroke="rgb(0,0,0)" paint-order="fill stroke markers" d=" M 537.154524136924 181.42548037280068 C 537.154524136924 184.18690412195465 534.915947886078 186.42548037280068 532.154524136924 186.42548037280068 C 529.39310038777 186.42548037280068 527.154524136924 184.18690412195465 527.154524136924 181.42548037280068 C 527.154524136924 178.6640566236467 529.39310038777 176.42548037280068 532.154524136924 176.42548037280068 C 534.915947886078 176.42548037280068 537.154524136924 178.6640566236467 537.154524136924 181.42548037280068 Z" stroke-opacity="1" stroke-linecap="round" stroke-linejoin="round" stroke-miterlimit="10"/><text fill="rgb(21,101,192)" stroke="none" font-family="geogebra-sans-serif, sans-serif" font-size="16px" font-style="normal" font-weight="normal" text-decoration="normal" x="536" y="171" text-anchor="start" dominant-baseline="alphabetic" fill-opacity="1">A</text><path fill="rgb(21,101,192)" stroke="none" paint-order="stroke fill markers" d=" M 159.1176650106113 772.8908842162357 C 159.1176650106113 775.6523079653897 156.87908875976527 777.8908842162357 154.1176650106113 777.8908842162357 C 151.3562412614573 777.8908842162357 149.1176650106113 775.6523079653897 149.1176650106113 772.8908842162357 C 149.1176650106113 770.1294604670817 151.3562412614573 767.8908842162357 154.1176650106113 767.8908842162357 C 156.87908875976527 767.8908842162357 159.1176650106113 770.1294604670817 159.1176650106113 772.8908842162357 Z" fill-opacity="1"/><path fill="none" stroke="rgb(0,0,0)" paint-order="fill stroke markers" d=" M 159.1176650106113 772.8908842162357 C 159.1176650106113 775.6523079653897 156.87908875976527 777.8908842162357 154.1176650106113 777.8908842162357 C 151.3562412614573 777.8908842162357 149.1176650106113 775.6523079653897 149.1176650106113 772.8908842162357 C 149.1176650106113 770.1294604670817 151.3562412614573 767.8908842162357 154.1176650106113 767.8908842162357 C 156.87908875976527 767.8908842162357 159.1176650106113 770.1294604670817 159.1176650106113 772.8908842162357 Z" stroke-opacity="1" stroke-linecap="round" stroke-linejoin="round" stroke-miterlimit="10"/><text fill="rgb(21,101,192)" stroke="none" font-family="geogebra-sans-serif, sans-serif" font-size="16px" font-style="normal" font-weight="normal" text-decoration="normal" x="158" y="763" text-anchor="start" dominant-baseline="alphabetic" fill-opacity="1">B</text><path fill="rgb(21,101,192)" stroke="none" paint-order="stroke fill markers" d=" M 1187.332273309344 756.2203021049397 C 1187.332273309344 758.9817258540937 1185.0936970584978 761.2203021049397 1182.332273309344 761.2203021049397 C 1179.57084956019 761.2203021049397 1177.332273309344 758.9817258540937 1177.332273309344 756.2203021049397 C 1177.332273309344 753.4588783557857 1179.57084956019 751.2203021049397 1182.332273309344 751.2203021049397 C 1185.0936970584978 751.2203021049397 1187.332273309344 753.4588783557857 1187.332273309344 756.2203021049397 Z" fill-opacity="1"/><path fill="none" stroke="rgb(0,0,0)" paint-order="fill stroke markers" d=" M 1187.332273309344 756.2203021049397 C 1187.332273309344 758.9817258540937 1185.0936970584978 761.2203021049397 1182.332273309344 761.2203021049397 C 1179.57084956019 761.2203021049397 1177.332273309344 758.9817258540937 1177.332273309344 756.2203021049397 C 1177.332273309344 753.4588783557857 1179.57084956019 751.2203021049397 1182.332273309344 751.2203021049397 C 1185.0936970584978 751.2203021049397 1187.332273309344 753.4588783557857 1187.332273309344 756.2203021049397 Z" stroke-opacity="1" stroke-linecap="round" stroke-linejoin="round" stroke-miterlimit="10"/><text fill="rgb(21,101,192)" stroke="none" font-family="geogebra-sans-serif, sans-serif" font-size="16px" font-style="normal" font-weight="normal" text-decoration="normal" x="1186" y="746" text-anchor="start" dominant-baseline="alphabetic" fill-opacity="1">C</text><path fill="rgb(21,101,192)" stroke="none" paint-order="stroke fill markers" d=" M 1253.2923348195895 363.15218045204836 C 1253.2923348195895 365.9136042012023 1251.0537585687434 368.15218045204836 1248.2923348195895 368.15218045204836 C 1245.5309110704356 368.15218045204836 1243.2923348195895 365.9136042012023 1243.2923348195895 363.15218045204836 C 1243.2923348195895 360.3907567028944 1245.5309110704356 358.15218045204836 1248.2923348195895 358.15218045204836 C 1251.0537585687434 358.15218045204836 1253.2923348195895 360.3907567028944 1253.2923348195895 363.15218045204836 Z" fill-opacity="1"/><path fill="none" stroke="rgb(0,0,0)" paint-order="fill stroke markers" d=" M 1253.2923348195895 363.15218045204836 C 1253.2923348195895 365.9136042012023 1251.0537585687434 368.15218045204836 1248.2923348195895 368.15218045204836 C 1245.5309110704356 368.15218045204836 1243.2923348195895 365.9136042012023 1243.2923348195895 363.15218045204836 C 1243.2923348195895 360.3907567028944 1245.5309110704356 358.15218045204836 1248.2923348195895 358.15218045204836 C 1251.0537585687434 358.15218045204836 1253.2923348195895 360.3907567028944 1253.2923348195895 363.15218045204836 Z" stroke-opacity="1" stroke-linecap="round" stroke-linejoin="round" stroke-miterlimit="10"/><text fill="rgb(21,101,192)" stroke="none" font-family="geogebra-sans-serif, sans-serif" font-size="16px" font-style="normal" font-weight="normal" text-decoration="normal" x="1252" y="353" text-anchor="start" dominant-baseline="alphabetic" fill-opacity="1">D</text><text fill="rgb(0,0,0)" stroke="none" font-family="geogebra-sans-serif, sans-serif" font-size="22px" font-style="normal" font-weight="normal" text-decoration="normal" x="527" y="607" text-anchor="start" dominant-baseline="alphabetic" fill-opacity="1">y</text><text fill="rgb(0,0,0)" stroke="none" font-family="geogebra-sans-serif, sans-serif" font-size="19px" font-style="normal" font-weight="normal" text-decoration="normal" x="538" y="616" text-anchor="start" dominant-baseline="alphabetic" fill-opacity="1">1</text><text fill="rgb(0,0,0)" stroke="none" font-family="geogebra-sans-serif, sans-serif" font-size="22px" font-style="normal" font-weight="normal" text-decoration="normal" x="1047" y="620" text-anchor="start" dominant-baseline="alphabetic" fill-opacity="1">x</text><text fill="rgb(0,0,0)" stroke="none" font-family="geogebra-sans-serif, sans-serif" font-size="19px" font-style="normal" font-weight="normal" text-decoration="normal" x="1058" y="629" text-anchor="start" dominant-baseline="alphabetic" fill-opacity="1">1</text><text fill="rgb(0,0,0)" stroke="none" font-family="geogebra-sans-serif, sans-serif" font-size="22px" font-style="italic" font-weight="normal" text-decoration="normal" x="808" y="499" text-anchor="start" dominant-baseline="alphabetic" fill-opacity="1">θ</text><text fill="rgb(0,0,0)" stroke="none" font-family="geogebra-sans-serif, sans-serif" font-size="22px" font-style="normal" font-weight="normal" text-decoration="normal" x="1029" y="421" text-anchor="start" dominant-baseline="alphabetic" fill-opacity="1">y</text><text fill="rgb(0,0,0)" stroke="none" font-family="geogebra-sans-serif, sans-serif" font-size="19px" font-style="normal" font-weight="normal" text-decoration="normal" x="1040" y="430" text-anchor="start" dominant-baseline="alphabetic" fill-opacity="1">2</text><text fill="rgb(0,0,0)" stroke="none" font-family="geogebra-sans-serif, sans-serif" font-size="22px" font-style="normal" font-weight="normal" text-decoration="normal" x="731" y="341" text-anchor="start" dominant-baseline="alphabetic" fill-opacity="1">x</text><text fill="rgb(0,0,0)" stroke="none" font-family="geogebra-sans-serif, sans-serif" font-size="19px" font-style="normal" font-weight="normal" text-decoration="normal" x="742" y="350" text-anchor="start" dominant-baseline="alphabetic" fill-opacity="1">2</text><text fill="rgb(0,0,0)" stroke="none" font-family="geogebra-sans-serif, sans-serif" font-size="32px" font-style="italic" font-weight="normal" text-decoration="normal" x="882" y="479" text-anchor="start" dominant-baseline="alphabetic" fill-opacity="1">Ο</text></g></g></svg>
