<svg version="1.1" xmlns="http://www.w3.org/2000/svg" xmlns:xlink="http://www.w3.org/1999/xlink" width="1524" height="881"><defs><clipPath id="fnxgrUcGCWuS"><path fill="none" stroke="none" d=" M 0 0 L 1524 0 L 1524 881 L 0 881 L 0 0 Z"/></clipPath></defs><g transform="scale(1,1)" clip-path="url(#fnxgrUcGCWuS)"><g><rect fill="rgb(255,255,255)" stroke="none" x="0" y="0" width="1524" height="881" fill-opacity="1"/><path fill="rgb(21,101,192)" stroke="none" paint-order="stroke fill markers" fill-rule="evenodd" d=" M 628.8504498591835 92.22190937631296 L 274.736537010097 764.5703518342751 L 1218.5203135462089 758.3304590968462 L 1291.8390532109977 262.25898647125 Z" fill-opacity="0.09803921568627451"/><path fill="rgb(21,101,192)" stroke="none" paint-order="stroke fill markers" d=" M 915.4196448444543 415.93896297078794 C 905.3066417573558 424.89145750690795 902.439312346448 439.5062792914331 908.4200023166435 451.61624780251213 L 935.265971997739 438.3579621624617 Z" fill-opacity="0.09803921568627451"/><path fill="none" stroke="rgb(21,101,192)" paint-order="fill stroke markers" d=" M 915.4196448444543 415.93896297078794 C 905.3066417573558 424.89145750690795 902.439312346448 439.5062792914331 908.4200023166435 451.61624780251213 L 935.265971997739 438.3579621624617 Z" stroke-opacity="0.8" stroke-linecap="round" stroke-linejoin="round" stroke-miterlimit="10" stroke-width="2.5"/><path fill="none" stroke="rgb(21,101,192)" paint-order="fill stroke markers" d=" M 628.8504498591835 92.22190937631296 L 274.736537010097 764.5703518342751" stroke-opacity="0.6980392156862745" stroke-linecap="round" stroke-linejoin="round" stroke-miterlimit="10" stroke-width="2.5"/><path fill="none" stroke="rgb(21,101,192)" paint-order="fill stroke markers" d=" M 274.736537010097 764.5703518342751 L 1218.5203135462089 758.3304590968462" stroke-opacity="0.6980392156862745" stroke-linecap="round" stroke-linejoin="round" stroke-miterlimit="10" stroke-width="2.5"/><path fill="none" stroke="rgb(21,101,192)" paint-order="fill stroke markers" d=" M 1218.5203135462089 758.3304590968462 L 1291.8390532109977 262.25898647125" stroke-opacity="0.6980392156862745" stroke-linecap="round" stroke-linejoin="round" stroke-miterlimit="10" stroke-width="2.5"/><path fill="none" stroke="rgb(21,101,192)" paint-order="fill stroke markers" d=" M 1291.8390532109977 262.25898647125 L 628.8504498591835 92.22190937631296" stroke-opacity="0.6980392156862745" stroke-linecap="round" stroke-linejoin="round" stroke-miterlimit="10" stroke-width="2.5"/><path fill="none" stroke="rgb(0,0,0)" paint-order="fill stroke markers" d=" M 628.8504498591835 92.22190937631296 L 1218.5203135462089 758.3304590968462" stroke-opacity="0.6980392156862745" stroke-linecap="round" stroke-linejoin="round" stroke-miterlimit="10" stroke-width="2.5"/><path fill="none" stroke="rgb(0,0,0)" paint-order="fill stroke markers" d=" M 274.736537010097 764.5703518342751 L 1291.8390532109977 262.25898647125" stroke-opacity="0.6980392156862745" stroke-linecap="round" stroke-linejoin="round" stroke-miterlimit="10" stroke-width="2.5"/><path fill="rgb(21,101,192)" stroke="none" paint-order="stroke fill markers" d=" M 633.8504498591835 92.22190937631296 C 633.8504498591835 94.98333312546693 631.6118736083375 97.22190937631296 628.8504498591835 97.22190937631296 C 626.0890261100295 97.22190937631296 623.8504498591835 94.98333312546693 623.8504498591835 92.22190937631296 C 623.8504498591835 89.460485627159 626.0890261100295 87.22190937631296 628.8504498591835 87.22190937631296 C 631.6118736083375 87.22190937631296 633.8504498591835 89.460485627159 633.8504498591835 92.22190937631296 Z" fill-opacity="1"/><path fill="none" stroke="rgb(0,0,0)" paint-order="fill stroke markers" d=" M 633.8504498591835 92.22190937631296 C 633.8504498591835 94.98333312546693 631.6118736083375 97.22190937631296 628.8504498591835 97.22190937631296 C 626.0890261100295 97.22190937631296 623.8504498591835 94.98333312546693 623.8504498591835 92.22190937631296 C 623.8504498591835 89.460485627159 626.0890261100295 87.22190937631296 628.8504498591835 87.22190937631296 C 631.6118736083375 87.22190937631296 633.8504498591835 89.460485627159 633.8504498591835 92.22190937631296 Z" stroke-opacity="1" stroke-linecap="round" stroke-linejoin="round" stroke-miterlimit="10"/><text fill="rgb(21,101,192)" stroke="none" font-family="geogebra-sans-serif, sans-serif" font-size="16px" font-style="normal" font-weight="normal" text-decoration="normal" x="633" y="82" text-anchor="start" dominant-baseline="alphabetic" fill-opacity="1">A</text><path fill="rgb(21,101,192)" stroke="none" paint-order="stroke fill markers" d=" M 279.736537010097 764.5703518342751 C 279.736537010097 767.3317755834291 277.49796075925093 769.5703518342751 274.736537010097 769.5703518342751 C 271.97511326094303 769.5703518342751 269.736537010097 767.3317755834291 269.736537010097 764.5703518342751 C 269.736537010097 761.8089280851211 271.97511326094303 759.5703518342751 274.736537010097 759.5703518342751 C 277.49796075925093 759.5703518342751 279.736537010097 761.8089280851211 279.736537010097 764.5703518342751 Z" fill-opacity="1"/><path fill="none" stroke="rgb(0,0,0)" paint-order="fill stroke markers" d=" M 279.736537010097 764.5703518342751 C 279.736537010097 767.3317755834291 277.49796075925093 769.5703518342751 274.736537010097 769.5703518342751 C 271.97511326094303 769.5703518342751 269.736537010097 767.3317755834291 269.736537010097 764.5703518342751 C 269.736537010097 761.8089280851211 271.97511326094303 759.5703518342751 274.736537010097 759.5703518342751 C 277.49796075925093 759.5703518342751 279.736537010097 761.8089280851211 279.736537010097 764.5703518342751 Z" stroke-opacity="1" stroke-linecap="round" stroke-linejoin="round" stroke-miterlimit="10"/><text fill="rgb(21,101,192)" stroke="none" font-family="geogebra-sans-serif, sans-serif" font-size="16px" font-style="normal" font-weight="normal" text-decoration="normal" x="279" y="755" text-anchor="start" dominant-baseline="alphabetic" fill-opacity="1">B</text><path fill="rgb(21,101,192)" stroke="none" paint-order="stroke fill markers" d=" M 1223.5203135462089 758.3304590968462 C 1223.5203135462089 761.0918828460002 1221.2817372953627 763.3304590968462 1218.5203135462089 763.3304590968462 C 1215.758889797055 763.3304590968462 1213.5203135462089 761.0918828460002 1213.5203135462089 758.3304590968462 C 1213.5203135462089 755.5690353476922 1215.758889797055 753.3304590968462 1218.5203135462089 753.3304590968462 C 1221.2817372953627 753.3304590968462 1223.5203135462089 755.5690353476922 1223.5203135462089 758.3304590968462 Z" fill-opacity="1"/><path fill="none" stroke="rgb(0,0,0)" paint-order="fill stroke markers" d=" M 1223.5203135462089 758.3304590968462 C 1223.5203135462089 761.0918828460002 1221.2817372953627 763.3304590968462 1218.5203135462089 763.3304590968462 C 1215.758889797055 763.3304590968462 1213.5203135462089 761.0918828460002 1213.5203135462089 758.3304590968462 C 1213.5203135462089 755.5690353476922 1215.758889797055 753.3304590968462 1218.5203135462089 753.3304590968462 C 1221.2817372953627 753.3304590968462 1223.5203135462089 755.5690353476922 1223.5203135462089 758.3304590968462 Z" stroke-opacity="1" stroke-linecap="round" stroke-linejoin="round" stroke-miterlimit="10"/><text fill="rgb(21,101,192)" stroke="none" font-family="geogebra-sans-serif, sans-serif" font-size="16px" font-style="normal" font-weight="normal" text-decoration="normal" x="1223" y="748" text-anchor="start" dominant-baseline="alphabetic" fill-opacity="1">C</text><path fill="rgb(21,101,192)" stroke="none" paint-order="stroke fill markers" d=" M 1296.8390532109977 262.25898647125 C 1296.8390532109977 265.02041022040396 1294.6004769601516 267.25898647125 1291.8390532109977 267.25898647125 C 1289.0776294618438 267.25898647125 1286.8390532109977 265.02041022040396 1286.8390532109977 262.25898647125 C 1286.8390532109977 259.49756272209606 1289.0776294618438 257.25898647125 1291.8390532109977 257.25898647125 C 1294.6004769601516 257.25898647125 1296.8390532109977 259.49756272209606 1296.8390532109977 262.25898647125 Z" fill-opacity="1"/><path fill="none" stroke="rgb(0,0,0)" paint-order="fill stroke markers" d=" M 1296.8390532109977 262.25898647125 C 1296.8390532109977 265.02041022040396 1294.6004769601516 267.25898647125 1291.8390532109977 267.25898647125 C 1289.0776294618438 267.25898647125 1286.8390532109977 265.02041022040396 1286.8390532109977 262.25898647125 C 1286.8390532109977 259.49756272209606 1289.0776294618438 257.25898647125 1291.8390532109977 257.25898647125 C 1294.6004769601516 257.25898647125 1296.8390532109977 259.49756272209606 1296.8390532109977 262.25898647125 Z" stroke-opacity="1" stroke-linecap="round" stroke-linejoin="round" stroke-miterlimit="10"/><text fill="rgb(21,101,192)" stroke="none" font-family="geogebra-sans-serif, sans-serif" font-size="16px" font-style="normal" font-weight="normal" text-decoration="normal" x="1296" y="252" text-anchor="start" dominant-baseline="alphabetic" fill-opacity="1">D</text><text fill="rgb(0,0,0)" stroke="none" font-family="geogebra-sans-serif, sans-serif" font-size="16px" font-style="normal" font-weight="normal" text-decoration="normal" x="674" y="549" text-anchor="start" dominant-baseline="alphabetic" fill-opacity="1">y</text><text fill="rgb(0,0,0)" stroke="none" font-family="geogebra-sans-serif, sans-serif" font-size="16px" font-style="normal" font-weight="normal" text-decoration="normal" x="1076" y="571" text-anchor="start" dominant-baseline="alphabetic" fill-opacity="1">x</text><text fill="rgb(0,0,0)" stroke="none" font-family="geogebra-sans-serif, sans-serif" font-size="16px" font-style="normal" font-weight="normal" text-decoration="normal" x="888" y="439" text-anchor="start" dominant-baseline="alphabetic" fill-opacity="1">θ</text><text fill="rgb(0,0,0)" stroke="none" font-family="geogebra-sans-serif, sans-serif" font-size="22px" font-style="italic" font-weight="normal" text-decoration="normal" x="931" y="429" text-anchor="start" dominant-baseline="alphabetic" fill-opacity="1">Ο</text></g></g></svg>
